<?xml version="1.0" encoding="utf-8"?>
<!-- Generator: Adobe Illustrator 22.0.0, SVG Export Plug-In . SVG Version: 6.00 Build 0)  -->
<svg version="1.1" id="Camada_1" xmlns="http://www.w3.org/2000/svg" xmlns:xlink="http://www.w3.org/1999/xlink" x="0px" y="0px"
	 viewBox="0 0 400 400" style="enable-background:new 0 0 400 400;" xml:space="preserve">
<style type="text/css">
	.st0{filter:url(#Adobe_OpacityMaskFilter);}
	.st1{fill:url(#SVGID_2_);}
	.st2{mask:url(#SVGID_1_);}
	.st3{clip-path:url(#SVGID_4_);fill:none;stroke:#FFFFFF;stroke-width:0.5581;stroke-miterlimit:22.9256;}
	.st4{fill:#FFFFFF;}
	.st5{fill-rule:evenodd;clip-rule:evenodd;fill:#FFFFFF;}
	.st6{fill-rule:evenodd;clip-rule:evenodd;fill:#363536;}
</style>
<defs>
	<filter id="Adobe_OpacityMaskFilter" filterUnits="userSpaceOnUse" x="71.6" y="22.4" width="223.8" height="217.6">
		<feColorMatrix  type="matrix" values="1 0 0 0 0  0 1 0 0 0  0 0 1 0 0  0 0 0 1 0"/>
	</filter>
</defs>
<mask maskUnits="userSpaceOnUse" x="71.6" y="22.4" width="223.8" height="217.6" id="SVGID_1_">
	<g class="st0">
		
			<linearGradient id="SVGID_2_" gradientUnits="userSpaceOnUse" x1="-212.1122" y1="292.1033" x2="-212.1122" y2="568.876" gradientTransform="matrix(1 0 0 1 395.5887 -289.9517)">
			<stop  offset="0" style="stop-color:#FFFFFF"/>
			<stop  offset="8.810408e-02" style="stop-color:#F3F3F3"/>
			<stop  offset="0.2483" style="stop-color:#D2D2D2"/>
			<stop  offset="0.4624" style="stop-color:#9E9E9E"/>
			<stop  offset="0.7225" style="stop-color:#555555"/>
			<stop  offset="1" style="stop-color:#000000"/>
		</linearGradient>
		<rect x="71.6" y="22.4" class="st1" width="223.8" height="217.6"/>
	</g>
</mask>
<g class="st2">
	<g>
		<defs>
			<rect id="SVGID_3_" x="71.6" y="22.4" width="223.8" height="217.6"/>
		</defs>
		<clipPath id="SVGID_4_">
			<use xlink:href="#SVGID_3_"  style="overflow:visible;"/>
		</clipPath>
		<polyline class="st3" points="71.6,238.9 113.7,238.9 113.7,134.4 159.7,97.2 159.7,238.9 147.2,238.9 147.1,63.7 177.2,63.6 
			177.3,41 207.1,40.9 207.1,238.9 199.7,238.9 199.7,23.4 231.8,23.5 267.9,97.8 267.9,238.9 295.4,238.9 		"/>
	</g>
</g>
<path class="st4" d="M374.8,363.6c2.5,0,4.8-1.5,4.8-4c0-2.7-2.5-3.6-4.8-4.4c-1.8-0.7-3.3-1.3-3.3-3c0-1.6,1.4-2.4,3-2.4
	c1.8,0,3.2,1,3.2,2.8h1.5c0-2.7-2.2-4.2-4.6-4.2c-2.3,0-4.5,1.4-4.5,3.9c0,2.9,2.5,3.6,4.7,4.5c1.8,0.7,3.3,1.4,3.3,3
	c0,1.6-1.5,2.6-3.3,2.6c-2.1,0-3.7-1.1-3.7-3.1h-1.5C369.6,362,372,363.6,374.8,363.6 M357.2,362.2c-3.5,0-6.2-2.8-6.2-6.2
	c0-3.5,2.7-6.2,6.2-6.2c3.5,0,6.2,2.8,6.2,6.2C363.4,359.4,360.7,362.2,357.2,362.2z M357.2,363.6c4.3,0,7.7-3.4,7.7-7.7
	c0-4.2-3.4-7.7-7.7-7.7c-4.3,0-7.7,3.4-7.7,7.7C349.5,360.2,352.8,363.6,357.2,363.6z M342.3,348.5v14.9h1.5v-14.9H342.3z
	 M329.8,363.6c3.3,0,6.1-2,7-4.9h-1.6c-0.8,2.1-2.9,3.5-5.3,3.5c-3.8,0-6.3-2.8-6.3-6.2c0-3.5,2.5-6.2,6.3-6.2
	c2.4,0,4.6,1.4,5.3,3.5h1.6c-0.9-2.9-3.7-4.9-7-4.9c-4.6,0-7.8,3.4-7.8,7.7C322,360.2,325.2,363.6,329.8,363.6z M309.4,362.2
	c-3.5,0-6.2-2.8-6.2-6.2c0-3.5,2.7-6.2,6.2-6.2c3.5,0,6.2,2.8,6.2,6.2C315.6,359.4,313,362.2,309.4,362.2z M309.4,363.6
	c4.3,0,7.7-3.4,7.7-7.7c0-4.2-3.4-7.7-7.7-7.7c-4.3,0-7.7,3.4-7.7,7.7C301.8,360.2,305.1,363.6,309.4,363.6z M308.4,347l1.7-2.8h1.7
	l-2,2.8H308.4z M289.8,357.3h5.1v0.4c0,2.9-2.5,4.5-5.5,4.5c-3.7,0-6.2-2.8-6.2-6.2c0-3.5,2.5-6.2,6.2-6.2c2.4,0,4.6,1.4,5.3,3.5
	h1.6c-0.9-2.9-3.7-4.9-7-4.9c-4.5,0-7.7,3.4-7.7,7.7c0,4.2,3.2,7.7,7.7,7.7c2.2,0,4.3-0.8,5.5-2.5v2.3h1.5v-6.1v-1.4h-6.6V357.3z
	 M269.9,361.9v-5.4h6.4v-1.4h-6.4v-5.3h6.9v-1.4h-6.9h-1.5v14.9h0.6h7.9v-1.4H269.9z M260.4,348.5v11.9l-7.2-11.9h-1.3v14.9h1.5
	v-11.9l7.2,11.9h1.3v-14.9H260.4z M233.9,362.2c-2.1,0-3.6-1.2-3.6-2.9c0-1.1,0.6-2.2,1.9-3l4.9,5
	C236.4,361.8,235.3,362.2,233.9,362.2z M241.3,363.3l-2.1-2.1c1-1.4,1.3-3.1,1.3-4.7h-1.5c0,1.5-0.3,2.7-0.8,3.7l-5.2-5.3
	c-0.8-0.8-1.4-1.6-1.4-2.6c0-1.6,1.3-2.6,2.9-2.6c1.6,0,3,0.9,3,2.8h1.5c0-2.8-2.2-4.2-4.5-4.2c-2.3,0-4.4,1.5-4.4,4
	c0,1.3,0.5,2.1,1.2,2.9c-1.5,1-2.4,2.4-2.4,4.1c0,2.7,2.2,4.4,5.1,4.4c1.9,0,3.3-0.5,4.3-1.3l1.1,1.1H241.3z M211.5,361.9v-5.4h6.4
	v-1.4h-6.4v-5.3h6.9v-1.4h-6.9H210v14.9h0.6h7.9v-1.4H211.5z M197.3,361.9h-4.7v-12.1h4.7c3.3,0,5.6,2.7,5.6,6
	C202.8,359.2,200.6,361.9,197.3,361.9z M197.3,348.5h-4.7h-1.5v14.9h0.6h5.5c4.1,0,7-3.3,7-7.4C204.3,351.8,201.3,348.5,197.3,348.5
	z M176.5,358.3l3-8l3,8H176.5z M184.4,363.3h1.6l-5.7-14.9h-1.5l-5.7,14.9h1.6l1.4-3.6h7L184.4,363.3z M162.3,361.9h-4.7v-12.1h4.7
	c3.3,0,5.6,2.7,5.6,6C167.9,359.2,165.6,361.9,162.3,361.9z M162.3,348.5h-4.7h-1.5v14.9h0.6h5.5c4.1,0,7-3.3,7-7.4
	C169.3,351.8,166.4,348.5,162.3,348.5z M148.1,348.5v14.9h1.5v-14.9H148.1z M136,361.9v-13.5h-1.5v14.9h8.3v-1.4H136z M126.5,348.5
	v14.9h1.5v-14.9H126.5z M115.9,361.9h-5.7v-7h5.7c2.1,0,3.4,1.5,3.4,3.5C119.4,360.4,118,361.9,115.9,361.9z M114.7,349.9
	c1.5,0,2.4,1,2.4,2.2c0,0.6-0.2,1.1-0.5,1.5h-0.3h-5.9v-3.7H114.7z M118,353.9c0.3-0.5,0.5-1.2,0.5-1.8c0-2-1.5-3.6-3.8-3.6h-4.4
	h-1.5v14.9h0.2h7.2c2.7,0,4.7-2.2,4.7-4.9C120.8,356.4,119.7,354.7,118,353.9z M94.2,358.3l3-8l3,8H94.2z M102.1,363.3h1.6
	l-5.7-14.9h-1.5l-5.7,14.9h1.6l1.4-3.6h7L102.1,363.3z M87.9,348.5h-4.1h-5.6v1.4h4.1v13.5h1.5v-13.5h4.1V348.5z M71.4,348.5v11.9
	l-7.2-11.9h-1.3v14.9h1.5v-11.9l7.2,11.9h1.3v-14.9H71.4z M49.5,362.2c-3.5,0-6.2-2.8-6.2-6.2c0-3.5,2.7-6.2,6.2-6.2
	c3.5,0,6.2,2.8,6.2,6.2C55.7,359.4,53,362.2,49.5,362.2z M49.5,363.6c4.3,0,7.7-3.4,7.7-7.7c0-4.2-3.4-7.7-7.7-7.7
	c-4.3,0-7.7,3.4-7.7,7.7C41.8,360.2,45.2,363.6,49.5,363.6z M30.2,363.6c3.3,0,6.1-2,7-4.9h-1.6c-0.8,2.1-2.9,3.5-5.3,3.5
	c-3.8,0-6.3-2.8-6.3-6.2c0-3.5,2.5-6.2,6.3-6.2c2.4,0,4.6,1.4,5.3,3.5h1.6c-0.9-2.9-3.7-4.9-7-4.9c-4.6,0-7.8,3.4-7.8,7.7
	C22.4,360.2,25.6,363.6,30.2,363.6z"/>
<path class="st5" d="M32,224.4c43.5-42.5,130.1-79.9,223-60.1c-33.6-4.8-113.7,27.9-141.1,61.5L32,224.4z"/>
<path class="st6" d="M370.1,224.5c-32.9-25.6-98.5-48.9-168.8-38.8c25.5-2.3,86.1,18.2,106.8,38.3L370.1,224.5z"/>
<path class="st4" d="M393,321.7l-0.9-0.1c-1,3.9-3,7-6.1,9.1c-3.1,2.1-6.7,3.2-10.9,3.2c-1.6,0-3.3-0.2-4.9-0.5
	c-1.7-0.3-3.3-0.9-4.9-1.5c-1.6-0.7-3-1.5-4.3-2.6c-1.3-1-2.5-2.3-3.3-3.7v-35.6h5.5c0.9,0,2.2,0,4,0c1.9,0,3.8,0.1,5.7,0.2
	c1.9,0.1,3.7,0.4,5.3,0.7c1.6,0.3,2.7,0.8,3.3,1.4c0.7,0.7,1.2,1.4,1.5,2c0.3,0.7,0.5,1.4,0.7,2c0.2,0.7,0.4,1.3,0.7,2
	c0.3,0.6,0.6,1.2,1.1,1.6c0.2,0.2,0.4,0.2,0.6,0.1c0.2-0.1,0.3-0.3,0.3-0.5c0.2-1.6,0.4-3.2,0.6-4.8c0.2-1.6,0.5-3.2,0.7-4.9
	c0.2-1.3,0.4-2.6,0.5-4c0.2-1.4,0.4-2.7,0.5-4.1c0-0.5-0.2-0.7-0.7-0.5c-0.7,0.2-1.4,0.4-2.1,0.6c-0.7,0.3-1.4,0.6-2.1,0.9
	c-1,0.4-1.9,0.8-2.9,1.2c-0.9,0.4-1.7,0.6-2.3,0.6h-21v-36.2h14.3c4,0,7.3,0.7,9.9,2c2.6,1.3,4.1,4.1,4.4,8.3c0,0.3,0.2,0.4,0.5,0.4
	c0.3,0,0.5-0.1,0.6-0.3c0.1-0.4,0.2-0.8,0.3-1.1c0.1-0.3,0.2-0.7,0.3-1.1c0.5-2.2,1-4.5,1.5-6.9c0.5-2.4,0.9-4.8,1.1-7.2
	c0-0.6-0.3-0.7-0.8-0.4c-0.5,0.3-1.6,0.5-3.1,0.6c-1.6,0.2-3.4,0.3-5.6,0.4c-2.2,0.1-4.6,0.1-7.4,0.2c-2.7,0-5.5,0.1-8.4,0.1
	c-3.7,0-7.7,0-11.8-0.1c-4.1,0-7.6-0.1-10.6-0.2h-8.2c-0.2,0-0.3,0.1-0.4,0.3c-0.1,0.2,0,0.3,0.1,0.5c1,0.7,1.9,1.2,2.7,1.5
	c0.8,0.3,1.7,0.5,2.6,0.7c0.8,0.2,1.5,0.4,2.2,0.6c0.7,0.2,1.3,0.5,1.8,1c0.5,0.4,1,1,1.3,1.7c0.3,0.7,0.5,1.7,0.5,3v72.3
	c0,1.5-0.1,3.1-0.3,4.5c-0.2,1.5-0.6,2.8-1.3,4c-0.6,1.2-1.5,2.1-2.7,2.8c-1.2,0.7-2.7,1.1-4.7,1.2v1c2.9-0.2,5.7-0.3,8.6-0.3
	c2.9,0,5.7,0,8.6,0c2.9,0,5.7,0,8.4,0.1c2.8,0,5.6,0.1,8.4,0.1c2.9,0.1,5.7,0.1,8.6,0.1c2.9,0,5.7,0,8.6,0l2-0.4
	c0.3-0.3,0.4-0.3,0.4-0.3c0.4,0,0.5-0.2,0.5-0.5l0.4-3.1v0.1c0.4-2,0.7-4.1,1-6.2C392.2,325.8,392.6,323.7,393,321.7 M331.6,295.2
	l-0.1-1c-7.8-0.3-15.6-0.4-23.4-0.4c-0.3,0-0.4,0.1-0.5,0.3c-0.1,0.2,0,0.4,0.3,0.6c0.6,0.3,1.2,0.6,1.8,0.8
	c0.6,0.2,1.1,0.3,1.5,0.5c1.2,0.3,2.2,0.8,3.1,1.3c0.9,0.5,1.4,1.5,1.4,2.9v21.3c-1.5,1.3-3.4,2.2-5.7,2.8c-2.3,0.6-4.4,0.8-6.5,0.8
	c-5,0-9.6-0.9-14-2.8c-4.3-1.8-8.1-4.3-11.3-7.5c-3.2-3.2-5.7-6.9-7.6-11.1c-1.8-4.3-2.7-8.8-2.7-13.6c0-4.4,0.8-8.3,2.5-12
	c1.6-3.6,3.9-6.7,6.8-9.3c2.9-2.6,6.3-4.6,10.2-6.1c3.9-1.5,8.2-2.2,12.7-2.2c2.7,0,5.2,0.3,7.7,0.9c2.5,0.6,4.7,1.5,6.7,2.8
	c2,1.3,3.7,2.9,5,4.9c1.3,2,2.3,4.3,2.8,7c0.1,0.3,0.3,0.4,0.5,0.4c0.3,0,0.4-0.1,0.5-0.4c0.1-0.4,0.2-0.9,0.2-1.4
	c0-0.5,0.1-1,0.2-1.4c0.4-2.2,0.7-4.4,1.1-6.5c0.4-2.1,0.5-4.3,0.5-6.6c0-0.3-0.2-0.5-0.5-0.5c-1.2-0.2-2.3-0.3-3.3-0.4
	c-1.1-0.1-2.2-0.3-3.5-0.4c-3-0.4-6.1-0.8-9.2-1.2c-3.1-0.4-6.2-0.6-9.4-0.6c-5.5,0-10.7,0.7-15.6,2.2c-4.9,1.5-9.2,3.7-12.8,6.7
	c-3.7,2.9-6.5,6.6-8.6,10.9c-2.1,4.4-3.1,9.3-3.1,15c0,6.4,1,12,3.1,16.8c2.1,4.8,5,8.7,8.8,11.8c3.8,3.1,8.3,5.5,13.5,7
	c5.2,1.6,10.9,2.4,17.2,2.4c3.9,0,7.9-0.3,11.9-0.8c4-0.6,7.7-2,11-4.4c0.2-0.2,0.3-0.3,0.3-0.4v-23.8c0-1.7,0.7-2.9,2-3.6
	C328.4,296,329.9,295.5,331.6,295.2z M247.7,296.5c0,4.9-0.8,9.1-2.4,12.8c-1.6,3.7-3.9,6.7-6.8,9.2c-2.9,2.4-6.4,4.3-10.5,5.5
	c-4.1,1.2-8.5,1.9-13.4,1.9c-2.4,0-4.5-0.1-6.2-0.3c-1.7-0.2-3.2-0.7-4.3-1.5c-1.2-0.8-2-1.9-2.6-3.3c-0.6-1.5-0.9-3.4-0.9-5.9
	v-50.8c1.7-0.6,3.4-1,5.2-1.2c1.8-0.2,3.6-0.3,5.3-0.3c5.3,0,10.3,0.8,14.8,2.4c4.5,1.6,8.4,3.8,11.6,6.8c3.2,2.9,5.7,6.5,7.6,10.7
	C246.8,286.6,247.7,291.2,247.7,296.5z M256.8,292.9c0-4.8-0.9-9.3-2.7-13.5c-1.8-4.2-4.3-7.9-7.6-11c-3.2-3.1-7-5.6-11.4-7.4
	c-4.4-1.8-9.2-2.7-14.4-2.7c-1.7,0-3.5,0-5.3,0.1c-1.8,0-3.6,0.1-5.3,0.3c-1.8,0.2-3.6,0.3-5.3,0.4c-1.8,0.1-3.6,0.1-5.3,0.1
	c-1.4,0-2.9,0-4.5-0.1c-1.6-0.1-3.1-0.2-4.4-0.3c-1.2-0.1-2.3-0.1-3.3-0.2c-1.1,0-2.2-0.1-3.3-0.1c-0.6,0-0.8,0.3-0.4,0.8
	c0.3,0.4,0.7,0.7,1.2,0.9c0.5,0.2,1.1,0.3,1.7,0.4c1.1,0.2,2.1,0.5,3.2,1.1c1.1,0.6,1.6,1.8,1.6,3.8v52.9c0,2.7-0.3,4.8-1,6.1
	c-0.7,1.4-2.5,2.3-5.4,2.9c-0.3,0.1-0.4,0.3-0.3,0.6c0,0.3,0.2,0.4,0.5,0.4c2.6-0.1,5.2,0,7.8,0.1c2.6,0.2,5.2,0.3,7.8,0.5
	c2.3,0.2,4.7,0.3,7.2,0.5c2.5,0.2,4.8,0.3,7.2,0.3c6.2,0,11.9-0.7,17.1-2.2c5.2-1.5,9.6-3.8,13.2-6.8c3.7-3,6.5-6.9,8.6-11.5
	C255.8,304.7,256.8,299.2,256.8,292.9z M180.8,329v-1c-3.2-0.3-5.5-1.1-6.8-2.5c-1.3-1.4-1.9-3.7-1.9-7v-52.8c0-2.2,0.6-3.6,1.8-4.2
	c1.2-0.6,2.8-1.1,4.7-1.5c0.3-0.1,0.4-0.3,0.3-0.6c-0.1-0.3-0.3-0.5-0.5-0.4c-1.8,0.3-3.6,0.4-5.5,0.5c-1.9,0.1-3.7,0.1-5.6,0.1
	c-2,0-3.9,0-5.7-0.1c-1.9-0.1-3.7-0.2-5.6-0.4c-0.3,0-0.4,0.1-0.5,0.4c0,0.3,0.1,0.5,0.3,0.6c1.9,0.3,3.5,0.8,4.9,1.5
	c1.4,0.8,2.1,2.1,2.1,4.1v53.1c0,2.2-0.5,4.1-1.5,5.7c-1,1.6-2.7,2.8-4.9,3.5c-0.3,0.1-0.4,0.3-0.3,0.6c0,0.3,0.2,0.4,0.5,0.4
	c2.4-0.1,4.8-0.1,7.1-0.2c2.3,0,4.7-0.1,7.1-0.1c1.7,0,3.4,0,5,0.1C177.3,329,179,329,180.8,329z M119.1,280.6c0,4.6-1,8.2-2.9,10.8
	c-1.9,2.6-5.4,3.9-10.4,3.9c-1.5,0-3,0-4.4-0.1c-1.4-0.1-2.9-0.3-4.4-0.5v-31.9c1-0.4,2-0.7,3.1-0.8c1.1-0.1,2.1-0.2,3.2-0.2
	c2.6,0,4.9,0.6,6.8,1.7c2,1.2,3.6,2.6,4.9,4.4c1.3,1.8,2.3,3.8,3,6C118.8,276.1,119.1,278.4,119.1,280.6z M152.9,328.5l-0.4-1
	c-2.7,0.3-5.3-0.1-7.9-1.3c-2.6-1.2-5.1-2.9-7.5-5.1c-2.4-2.2-4.7-4.6-6.9-7.3c-2.2-2.7-4.3-5.3-6.2-7.9c-1.3-1.7-2.6-3.4-3.7-4.9
	c-1.2-1.6-2.2-2.9-3.2-3.9c2.9-2.6,5.6-5.8,8-9.5c2.4-3.7,3.5-7.6,3.5-11.7c0-3.1-0.6-5.7-1.9-7.9c-1.2-2.2-2.9-4-4.9-5.4
	c-2-1.4-4.4-2.4-7.1-3c-2.7-0.6-5.4-1-8.2-1H80.2c-0.3,0-0.4,0.1-0.5,0.4c0,0.3,0.1,0.5,0.3,0.6c2,0.5,3.8,1.5,5.3,3
	c1.5,1.5,2.2,3.2,2.2,5.2v51.1c0,2-0.6,3.8-1.9,5.5c-1.2,1.7-2.8,3-4.7,3.8c-0.3,0.2-0.3,0.4-0.2,0.7c0.1,0.3,0.3,0.4,0.6,0.3
	c2-0.3,4-0.5,5.9-0.6c1.9-0.2,3.9-0.3,5.9-0.3c2,0,4.1,0.1,6.1,0.2c2,0.1,4,0.3,6.1,0.4v-1c-2.6-0.3-4.7-1.3-6.2-3
	c-1.6-1.8-2.3-3.9-2.3-6.3v-18.2c0.7-0.2,1.4-0.3,2-0.3c0.7,0,1.4,0,2.1,0c2.4,0,4.6,0.4,6.5,1.3c1.9,0.9,3.7,2,5.3,3.4
	c1.6,1.4,3.2,3,4.5,4.7c1.4,1.8,2.7,3.5,3.9,5.3c1.3,2,2.7,3.9,4.2,5.8c1.5,1.9,3.1,3.5,4.7,5c1.7,1.5,3.6,2.6,5.7,3.6
	c2.1,0.9,4.5,1.4,7.2,1.4c1.6,0,3.2-0.2,4.9-0.6C149.8,329.7,151.4,329.1,152.9,328.5z M65.6,314.5c0,2.6-0.4,5-1.3,7.4
	c-0.9,2.4-2.2,4.5-3.9,6.4c-1.7,1.9-3.7,3.4-6,4.5c-2.3,1.1-4.9,1.7-7.6,1.7c-1.4,0-3-0.2-4.7-0.7c-1.7-0.5-3.3-1.2-4.7-2
	c-1.5-0.9-2.7-2-3.7-3.2c-1-1.2-1.5-2.7-1.5-4.3v-36.4h0.9c2.6,0,5.3,0.1,8.2,0.3c2.9,0.2,5.5,0.9,7.9,2c2.4,1.1,4.6,2.5,6.6,4.3
	c2,1.7,3.7,3.7,5.2,5.8c1.5,2.1,2.6,4.4,3.4,6.9C65.2,309.6,65.6,312,65.6,314.5z M56.5,264.7c0,3.8-0.6,6.8-1.7,9.2
	c-1.1,2.3-2.7,4.2-4.7,5.5c-2,1.3-4.5,2.2-7.4,2.7c-2.9,0.5-6.1,0.7-9.6,0.7h-0.8v-35c1.2-0.3,2.5-0.6,3.7-0.9
	c1.2-0.3,2.5-0.4,3.7-0.4c2.6,0,4.9,0.5,7,1.5c2.1,1,3.9,2.3,5.3,4c1.4,1.7,2.5,3.6,3.3,5.8C56.1,260,56.5,262.3,56.5,264.7z
	 M77.2,310.5c0-3.2-0.6-6.1-1.7-9c-1.1-2.8-2.7-5.3-4.7-7.6c-2-2.2-4.3-4.1-7-5.8c-2.7-1.6-5.6-2.9-8.7-3.8c1.5-1.4,3-2.9,4.5-4.5
	c1.5-1.7,2.8-3.4,4-5.3c1.2-1.8,2.2-3.7,2.9-5.7c0.7-2,1.1-4,1.1-6.1c0-3.4-0.9-6.4-2.6-9c-1.7-2.6-3.9-4.7-6.6-6.3
	c-2.7-1.7-5.7-2.9-9-3.7c-3.3-0.8-6.5-1.2-9.5-1.2c-1.8,0-3.6,0-5.5,0.1c-1.9,0.1-3.7,0.2-5.6,0.4c-1.8,0.2-3.6,0.3-5.5,0.5
	c-1.9,0.2-3.8,0.3-5.7,0.3c-2.5,0-5.1-0.3-7.8-0.8c-0.3-0.1-0.5,0-0.6,0.1c-0.1,0.2-0.1,0.3,0.1,0.5c0.7,0.9,1.5,1.5,2.3,1.7
	c0.8,0.2,1.8,0.3,2.7,0.4c0.7,0.1,1.4,0.2,2.1,0.3c0.7,0.1,1.3,0.4,1.8,0.8c0.5,0.4,1,1.1,1.3,1.9c0.3,0.9,0.5,2,0.5,3.5v72.3
	c0,2-0.1,3.7-0.3,5.1c-0.2,1.3-0.6,2.4-1.1,3.3c-0.6,0.9-1.5,1.7-2.7,2.3c-1.2,0.6-2.8,1.3-4.9,1.9c-0.3,0.1-0.4,0.3-0.3,0.6
	c0,0.3,0.2,0.4,0.5,0.4c2.9,0,5.7,0,8.6,0.1c2.9,0,5.8,0.1,8.6,0.2c2.9,0.1,5.8,0.1,8.7,0.1c2.9,0,5.7,0,8.6,0c4.2,0,8.2-0.7,12-2
	c3.8-1.3,7.1-3.2,10-5.6c2.9-2.4,5.2-5.4,6.9-8.8C76.3,318.7,77.2,314.8,77.2,310.5z"/>
</svg>
